<svg xmlns="http://www.w3.org/2000/svg" xmlns:xlink="http://www.w3.org/1999/xlink" fill="none" version="1.1" width="44" height="44" viewBox="0 0 44 44"><defs><linearGradient x1="0.5" y1="1" x2="0.5" y2="0" id="master_svg0_15_02072"><stop offset="0%" stop-color="#FF4A9B" stop-opacity="0.019999999552965164"/><stop offset="100%" stop-color="#FF4A9B" stop-opacity="0.20000000298023224"/></linearGradient><clipPath id="master_svg1_15_892"><rect x="10.5" y="9.50225830078125" width="24" height="24" rx="0"/></clipPath></defs><g style="mix-blend-mode:passthrough"><g style="mix-blend-mode:passthrough"><ellipse cx="22" cy="22" rx="22" ry="22" fill="url(#master_svg0_15_02072)" fill-opacity="1"/></g><g clip-path="url(#master_svg1_15_892)"><g><rect x="10.5" y="9.50225830078125" width="24" height="24" rx="0" fill="#EE2C83" fill-opacity="0"/></g><g><path d="M15.53167,11.40450830078125L12.698317,15.20450830078125C12.5695565,15.377198300781249,12.5,15.58684830078125,12.5,15.80225830078125C12.5,15.816008300781249,12.500283539,15.82975830078125,12.500850499,15.84348830078125C12.5132728,16.14449830078125,12.660734,16.423858300781248,12.90225,16.60393830078125C13.07494,16.73269830078125,13.284591,16.80225830078125,13.5,16.80225830078125L13.51161,16.80218830078125C13.55599,16.801678300781248,13.60029,16.79820830078125,13.6442,16.79180830078125C13.906649999999999,16.75355830078125,14.14315,16.61262830078125,14.30168,16.400008300781252L16.83511,13.00225830078125L28.1649,13.00225830078125L30.6983,16.400008300781252C30.8871,16.65313830078125,31.1843,16.80225830078125,31.5,16.80225830078125L31.5103,16.80220830078125C31.7222,16.80001830078125,31.9279,16.73059830078125,32.0977,16.60393830078125C32.3104,16.44540830078125,32.4513,16.20890830078125,32.4895,15.94645830078125C32.4965,15.89870830078125,32.5,15.85051830078125,32.5,15.80225830078125L32.5,15.80163830078125C32.4999,15.58643830078125,32.4303,15.37702830078125,32.3017,15.20450830078125L29.4683,11.40450930078125C29.2796,11.15138030078125,28.9824,11.00225830078125,28.6667,11.00225830078125L16.33335,11.00225830078125C16.0176,11.00225830078125,15.7204,11.15138030078125,15.53167,11.40450830078125Z" fill-rule="evenodd" fill="#EE2C83" fill-opacity="1"/></g><g><path d="M12.5,29.515458300781248L12.5,15.50225830078125L32.5,15.50225830078125L32.5,29.515458300781248C32.5,30.06035830078125,32.0026,30.50225830078125,31.3889,30.50225830078125L13.61111,30.50225830078125C12.997461,30.50225830078125,12.5,30.06035830078125,12.5,29.515458300781248ZM19.72217,19.10223830078125Q19.72217,20.26371830078125,20.53784,21.08416830078125Q21.35109,21.90218830078125,22.499969999999998,21.90218830078125Q23.6488,21.90218830078125,24.4621,21.08416830078125Q25.2777,20.26372830078125,25.2777,19.10223830078125C25.2777,18.54994830078125,25.7254,18.10223830078125,26.2777,18.10223830078125C26.83,18.10223830078125,27.2777,18.54994830078125,27.2777,19.10223830078125Q27.2777,21.08871830078125,25.8804,22.494238300781248Q24.4807,23.902188300781248,22.499969999999998,23.902188300781248Q20.51924,23.902188300781248,19.119500000000002,22.494238300781248Q17.72217,21.08871830078125,17.72217,19.10223830078125C17.72217,18.54994830078125,18.16988,18.10223830078125,18.72217,18.10223830078125C19.27445,18.10223830078125,19.72217,18.54994830078125,19.72217,19.10223830078125Z" fill-rule="evenodd" fill="#EE2C83" fill-opacity="1"/></g></g></g></svg>