<svg xmlns="http://www.w3.org/2000/svg" xmlns:xlink="http://www.w3.org/1999/xlink" fill="none" version="1.1" width="44" height="44" viewBox="0 0 44 44"><defs><linearGradient x1="0.5" y1="1" x2="0.5" y2="0" id="master_svg0_15_02137"><stop offset="0%" stop-color="#FF4A9B" stop-opacity="0.019999999552965164"/><stop offset="100%" stop-color="#FF4A9B" stop-opacity="0.20000000298023224"/></linearGradient><clipPath id="master_svg1_15_02138"><rect x="10" y="10" width="24" height="24" rx="0"/></clipPath></defs><g style="mix-blend-mode:passthrough"><g style="mix-blend-mode:passthrough"><ellipse cx="22" cy="22" rx="22" ry="22" fill="url(#master_svg0_15_02137)" fill-opacity="1"/></g><g clip-path="url(#master_svg1_15_02138)"><g><rect x="10" y="10" width="24" height="24" rx="0" fill="#FFFFFF" fill-opacity="0.009999999776482582"/></g><g><path d="M22,20C23.933,20,25.5,18.433,25.5,16.5C25.5,14.56701,23.933,13,22,13C20.067,13,18.5,14.56701,18.5,16.5C18.5,18.433,20.067,20,22,20Z" fill="#FF4A9B" fill-opacity="1"/><path d="M19.5,16.5Q19.5,17.53554,20.23223,18.26777Q20.96446,19,22,19Q23.03554,19,23.76777,18.26777Q24.5,17.53554,24.5,16.5Q24.5,15.46447,23.76777,14.73223Q23.03553,14,22,14Q20.96446,14,20.23223,14.73223Q19.5,15.46447,19.5,16.5ZM17.5,16.5Q17.5,14.63604,18.818018,13.31802Q20.13604,12,22,12Q23.86396,12,25.18198,13.31802Q26.5,14.63604,26.5,16.5Q26.5,18.36396,25.18198,19.68198Q23.86396,21,22,21Q20.13604,21,18.818018,19.68198Q17.5,18.36396,17.5,16.5Z" fill="#FF4A9B" fill-opacity="1"/></g><g><path d="M15.68009,20.3564993359375Q14.682995,19.7556893359375,14.100975,18.7478293359375Q13.5,17.7071493359375,13.5,16.4999793359375Q13.5,15.3731393359375,14.027685,14.3840833359375Q14.5377683,13.4280193359375,15.427904,12.8071323359375Q15.50869,12.7507863359375,15.59891,12.7112823359375Q15.68913,12.6717773359375,15.78532,12.6506343359375Q15.88152,12.6294903359375,15.97999,12.6275193359375Q16.07846,12.6255493359375,16.17543,12.6428273359375Q16.27239,12.6601053359375,16.36412,12.6959683359375Q16.45585,12.7318303359375,16.53882,12.7849003359375Q16.62179,12.8379693359375,16.69282,12.9062063359375Q16.763840000000002,12.9744423359375,16.82019,13.0552233359375Q16.87653,13.1360053359375,16.91604,13.2262273359375Q16.95554,13.3164483359375,16.97669,13.4126443359375Q16.99783,13.5088393359375,16.9998,13.6073106359375Q17.00177,13.7057823359375,16.98449,13.802746335937499Q16.96721,13.8997103359375,16.931350000000002,13.9914403359375Q16.89549,14.0831703359375,16.84242,14.1661413359375Q16.78935,14.2491123359375,16.72111,14.3201363359375Q16.65288,14.3911593359375,16.5721,14.4475063359375Q15.5,15.1953093359375,15.5,16.4999793359375Q15.5,17.9129593359375,16.71231,18.6434593359375Q16.79667,18.6942893359375,16.86949,18.7605993359375Q16.94232,18.8269193359375,17.000799999999998,18.9061593359375Q17.05929,18.9854093359375,17.10119,19.0745393359375Q17.14309,19.163679335937502,17.1668,19.2592693359375Q17.19051,19.3548693359375,17.19511,19.4532493359375Q17.19971,19.5516393359375,17.18503,19.6490293359375Q17.17035,19.7464193359375,17.13695,19.839079335937498Q17.10355,19.9317293359375,17.05272,20.0160893359375Q17.00189,20.1004493359375,16.93557,20.1732693359375Q16.86926,20.246089335937498,16.79001,20.3045793359375Q16.71077,20.3630693359375,16.62163,20.4049693359375Q16.5325,20.4468693359375,16.43691,20.4705793359375Q16.34131,20.4942793359375,16.24293,20.4988893359375Q16.14454,20.503489335937502,16.04715,20.4888093359375Q15.94976,20.474129335937498,15.857099999999999,20.4407293359375Q15.76445,20.4073293359375,15.68009,20.3564993359375ZM17.1962,19.4999793359375Q17.1962,19.5984693359375,17.17698,19.6950693359375Q17.15777,19.7916693359375,17.12008,19.8826593359375Q17.08239,19.973659335937498,17.02767,20.0555493359375Q16.97295,20.1374393359375,16.90331,20.2070893359375Q16.833660000000002,20.2767293359375,16.75177,20.3314493359375Q16.66988,20.3861693359375,16.578879999999998,20.4238593359375Q16.48789,20.461549335937498,16.39129,20.4807593359375Q16.29469,20.4999793359375,16.1962,20.4999793359375Q16.09771,20.4999793359375,16.00111,20.4807593359375Q15.90451,20.461549335937498,15.81352,20.4238593359375Q15.72252,20.3861693359375,15.64063,20.3314493359375Q15.55874,20.2767293359375,15.489093,20.2070893359375Q15.419449,20.1374393359375,15.36473,20.0555493359375Q15.310011,19.973659335937498,15.27232,19.8826593359375Q15.234629,19.7916693359375,15.215415,19.6950693359375Q15.1962,19.5984693359375,15.1962,19.4999793359375Q15.1962,19.401489335937498,15.215415,19.3048893359375Q15.234629,19.2082893359375,15.27232,19.1172993359375Q15.310011,19.0262993359375,15.36473,18.9444093359375Q15.419449,18.8625193359375,15.489093,18.7928693359375Q15.55874,18.7232293359375,15.64063,18.6685093359375Q15.72252,18.6137893359375,15.81352,18.5760993359375Q15.90451,18.5384093359375,16.00111,18.5191893359375Q16.09771,18.4999793359375,16.1962,18.4999793359375Q16.29469,18.4999793359375,16.39129,18.5191893359375Q16.48789,18.5384093359375,16.578879999999998,18.5760993359375Q16.66988,18.6137893359375,16.75177,18.6685093359375Q16.833660000000002,18.7232293359375,16.90331,18.7928693359375Q16.97295,18.8625193359375,17.02767,18.9444093359375Q17.08239,19.0262993359375,17.12008,19.1172993359375Q17.15777,19.2082893359375,17.17698,19.3048893359375Q17.1962,19.401489335937498,17.1962,19.4999793359375ZM17,13.6273193359375Q17,13.7258107359375,16.98078,13.8224093359375Q16.961570000000002,13.9190083359375,16.92388,14.0100023359375Q16.88619,14.1009973359375,16.83147,14.1828893359375Q16.77675,14.2647823359375,16.70711,14.3344263359375Q16.63746,14.4040703359375,16.55557,14.4587893359375Q16.47368,14.5135073359375,16.38268,14.5511983359375Q16.29169,14.5888893359375,16.19509,14.608104335937501Q16.098489999999998,14.6273193359375,16,14.6273193359375Q15.90151,14.6273193359375,15.80491,14.608104335937501Q15.70831,14.5888893359375,15.61732,14.5511983359375Q15.52632,14.5135073359375,15.44443,14.4587893359375Q15.362537,14.4040703359375,15.292893,14.3344263359375Q15.223249,14.2647823359375,15.16853,14.1828893359375Q15.113811,14.1009973359375,15.07612,14.0100023359375Q15.038429,13.9190083359375,15.019214999999999,13.8224093359375Q15,13.7258107359375,15,13.6273193359375Q15,13.5288279359375,15.019214999999999,13.4322293359375Q15.038429,13.3356303359375,15.07612,13.2446363359375Q15.113811,13.1536413359375,15.16853,13.0717493359375Q15.223249,12.9898563359375,15.292893,12.9202123359375Q15.362537,12.8505683359375,15.44443,12.7958493359375Q15.52632,12.7411313359375,15.61732,12.7034403359375Q15.70831,12.6657493359375,15.80491,12.646534335937499Q15.90151,12.6273193359375,16,12.6273193359375Q16.098489999999998,12.6273193359375,16.19509,12.646534335937499Q16.29169,12.6657493359375,16.38268,12.7034403359375Q16.47368,12.7411313359375,16.55557,12.7958493359375Q16.63746,12.8505683359375,16.70711,12.9202123359375Q16.77675,12.9898563359375,16.83147,13.0717493359375Q16.88619,13.1536413359375,16.92388,13.2446363359375Q16.961570000000002,13.3356303359375,16.98078,13.4322293359375Q17,13.5288279359375,17,13.6273193359375Z" fill="#FF4A9B" fill-opacity="1"/></g><g><path d="M27.427919,18.5524293359375Q28.5,17.8046693359375,28.5,16.4999793359375Q28.5,15.1953093359375,27.427904,14.4475063359375Q27.347123,14.3911593359375,27.278886,14.3201363359375Q27.21065,14.2491123359375,27.157581,14.1661413359375Q27.104511,14.0831703359375,27.068649,13.9914403359375Q27.032786,13.8997103359375,27.015508,13.802746335937499Q26.99823,13.7057821359375,27.0002,13.6073104359375Q27.002171,13.5088383359375,27.023315,13.4126433359375Q27.044458,13.3164483359375,27.083963,13.2262263359375Q27.123467,13.1360053359375,27.179813,13.0552233359375Q27.23616,12.9744423359375,27.307183,12.9062053359375Q27.378207,12.8379693359375,27.461178,12.7849003359375Q27.544149,12.7318303359375,27.635879,12.6959683359375Q27.727609,12.6601053359375,27.824573,12.6428273359375Q27.9215372,12.6255493359375,28.0200089,12.6275193359375Q28.118481,12.6294903359375,28.214676,12.6506343359375Q28.310871,12.6717773359375,28.401093,12.7112823359375Q28.491314,12.7507863359375,28.572096,12.8071323359375Q29.462229999999998,13.4280193359375,29.97231,14.3840833359375Q30.5,15.3731393359375,30.5,16.4999793359375Q30.5,17.6267893359375,29.97232,18.6158593359375Q29.46222,19.5719593359375,28.572081,20.1928293359375Q28.491298,20.249169335937502,28.401076,20.2886693359375Q28.310853,20.3281793359375,28.214658,20.3493193359375Q28.118462,20.3704593359375,28.0199904,20.3724293359375Q27.9215187,20.3743993359375,27.824555,20.3571193359375Q27.727591,20.339839335937498,27.635862,20.303969335937502Q27.544132,20.2681093359375,27.461162,20.2150393359375Q27.378192,20.1619693359375,27.30717,20.0937293359375Q27.236148,20.0254893359375,27.179803,19.9447093359375Q27.123458,19.8639293359375,27.083955,19.7737093359375Q27.044453,19.6834793359375,27.023311,19.5872893359375Q27.002169,19.4910893359375,27.0002,19.3926193359375Q26.99823,19.2941493359375,27.015511,19.1971793359375Q27.032791,19.1002193359375,27.068655,19.0084893359375Q27.10452,18.9167593359375,27.157591,18.8337893359375Q27.210661,18.7508193359375,27.278899,18.6797993359375Q27.347137,18.6087793359375,27.427919,18.5524293359375ZM29,19.3726293359375Q29,19.4711193359375,28.980785,19.5677193359375Q28.961570000000002,19.6643193359375,28.923879,19.7553093359375Q28.886188,19.846309335937498,28.83147,19.9281993359375Q28.776751,20.0100893359375,28.707107,20.0797393359375Q28.637463,20.1493793359375,28.55557,20.2040993359375Q28.473678,20.2588193359375,28.382683,20.2965093359375Q28.291689,20.334199335937498,28.19509,20.3534093359375Q28.0984914,20.3726293359375,28,20.3726293359375Q27.9015086,20.3726293359375,27.80491,20.3534193359375Q27.708311,20.334199335937498,27.617317,20.2965093359375Q27.526322,20.2588193359375,27.44443,20.2040993359375Q27.362537,20.1493793359375,27.292893,20.0797393359375Q27.223249,20.0100893359375,27.16853,19.9281993359375Q27.113812,19.846309335937498,27.076121,19.7553093359375Q27.038429999999998,19.6643193359375,27.019215,19.5677193359375Q27,19.4711193359375,27,19.3726293359375Q27,19.274139335937498,27.019215,19.1775393359375Q27.038429999999998,19.0809393359375,27.076121,18.9899493359375Q27.113812,18.898949335937502,27.16853,18.8170593359375Q27.223249,18.7351693359375,27.292893,18.6655193359375Q27.362537,18.5958793359375,27.44443,18.5411593359375Q27.526322,18.4864393359375,27.617317,18.4487493359375Q27.708311,18.4110593359375,27.80491,18.3918393359375Q27.9015086,18.3726293359375,28,18.3726293359375Q28.0984914,18.3726293359375,28.19509,18.3918393359375Q28.291689,18.4110593359375,28.382683,18.4487493359375Q28.473678,18.4864393359375,28.55557,18.5411593359375Q28.637463,18.5958793359375,28.707107,18.6655193359375Q28.776751,18.7351693359375,28.83147,18.8170593359375Q28.886188,18.898949335937502,28.923879,18.9899493359375Q28.961570000000002,19.0809393359375,28.980785,19.1775393359375Q29,19.274139335937498,29,19.3726293359375ZM29,13.6273193359375Q29,13.7258107359375,28.980785,13.8224093359375Q28.961570000000002,13.9190083359375,28.923879,14.0100023359375Q28.886188,14.1009973359375,28.83147,14.1828893359375Q28.776751,14.2647823359375,28.707107,14.3344263359375Q28.637463,14.4040703359375,28.55557,14.4587893359375Q28.473678,14.5135073359375,28.382683,14.5511983359375Q28.291689,14.5888893359375,28.19509,14.608104335937501Q28.0984914,14.6273193359375,28,14.6273193359375Q27.9015086,14.6273193359375,27.80491,14.608104335937501Q27.708311,14.5888893359375,27.617317,14.5511983359375Q27.526322,14.5135073359375,27.44443,14.4587893359375Q27.362537,14.4040703359375,27.292893,14.3344263359375Q27.223249,14.2647823359375,27.16853,14.1828893359375Q27.113812,14.1009973359375,27.076121,14.0100023359375Q27.038429999999998,13.9190083359375,27.019215,13.8224093359375Q27,13.7258107359375,27,13.6273193359375Q27,13.5288279359375,27.019215,13.4322293359375Q27.038429999999998,13.3356303359375,27.076121,13.2446363359375Q27.113812,13.1536413359375,27.16853,13.0717493359375Q27.223249,12.9898563359375,27.292893,12.9202123359375Q27.362537,12.8505683359375,27.44443,12.7958493359375Q27.526322,12.7411313359375,27.617317,12.7034403359375Q27.708311,12.6657493359375,27.80491,12.646534335937499Q27.9015086,12.6273193359375,28,12.6273193359375Q28.0984914,12.6273193359375,28.19509,12.646534335937499Q28.291689,12.6657493359375,28.382683,12.7034403359375Q28.473678,12.7411313359375,28.55557,12.7958493359375Q28.637463,12.8505683359375,28.707107,12.9202123359375Q28.776751,12.9898563359375,28.83147,13.0717493359375Q28.886188,13.1536413359375,28.923879,13.2446363359375Q28.961570000000002,13.3356303359375,28.980785,13.4322293359375Q29,13.5288279359375,29,13.6273193359375Z" fill="#FF4A9B" fill-opacity="1"/></g><g><path d="M16,30L16,31L28,31L28,30C28,28.13625,28,27.204349999999998,27.6955,26.46925C27.2896,25.48915,26.5109,24.71045,25.530749999999998,24.3045C24.795650000000002,24,23.86375,24,22,24C20.13625,24,19.204349999999998,24,18.46925,24.3045C17.48915,24.71045,16.71045,25.48915,16.3045,26.46925C16,27.204349999999998,16,28.13625,16,30Z" fill="#FF4A9B" fill-opacity="1"/><path d="M17.228369999999998,26.85195Q17,27.40327,17,30L17,31L16,31L16,30L28,30L28,31L27,31L27,30Q27,27.40327,26.7716,26.85195Q26.2961,25.70389,25.14808,25.22839Q24.59673,25,22,25L22,25Q19.40327,25,18.85194,25.228369999999998Q17.70389,25.70389,17.22839,26.85192L17.228369999999998,26.85195ZM15.380614,26.08658Q16.173145,24.173146,18.08655,23.380625Q18.7432,23.108622,19.74331,23.040382Q20.33513,23,22,23L22,23Q23.66486,23,24.25669,23.040382Q25.2568,23.108622,25.913420000000002,23.380613Q27.826900000000002,24.173147,28.6194,26.08655Q28.8914,26.7432,28.959600000000002,27.74331Q29,28.33513,29,30L29,31Q29,31.098489999999998,28.980800000000002,31.19509Q28.9616,31.29169,28.9239,31.38268Q28.886200000000002,31.47368,28.8315,31.55557Q28.776699999999998,31.63746,28.7071,31.70711Q28.6375,31.77675,28.5556,31.83147Q28.4737,31.88619,28.3827,31.92388Q28.2917,31.961570000000002,28.1951,31.98078Q28.0985,32,28,32L16,32Q15.9015086,32,15.80491,31.98078Q15.708311,31.961570000000002,15.617317,31.92388Q15.526322,31.88619,15.44443,31.83147Q15.362537,31.77675,15.292893,31.70711Q15.223249,31.63746,15.16853,31.55557Q15.113812,31.47368,15.076121,31.38268Q15.03843,31.29169,15.019214999999999,31.19509Q15,31.098489999999998,15,31L15,30Q15,28.33513,15.040382,27.74331Q15.108622,26.7432,15.380626,26.08655L15.380614,26.08658Z" fill="#FF4A9B" fill-opacity="1"/></g><g><path d="M30.26991396875,23.5449090859375Q31.71745796875,24.2824790859375,32.45501796875,25.7300130859375Q32.84433796875,26.494143085937502,32.94215796875,27.6913530859375Q32.99996796875,28.3990030859375,32.99996796875,30.3999630859375L32.99996796875,30.9999630859375Q32.99996796875,31.0984530859375,32.98074796875,31.195053085937502Q32.96153796875,31.2916530859375,32.92384796875,31.3826430859375Q32.88615796875,31.4736430859375,32.83143796875,31.5555330859375Q32.77671796875,31.6374230859375,32.70707796875,31.707073085937502Q32.63742796875,31.7767130859375,32.55553796875,31.8314330859375Q32.47364796875,31.8861530859375,32.38264796875,31.9238430859375Q32.29165796875,31.9615330859375,32.19505796875,31.9807430859375Q32.09845796875,31.9999630859375,31.99996796875,31.9999630859375Q31.90147796875,31.9999630859375,31.80487796875,31.9807430859375Q31.70827796875,31.9615330859375,31.61728796875,31.9238430859375Q31.52628796875,31.8861530859375,31.44439796875,31.8314330859375Q31.36250796875,31.7767130859375,31.29285796875,31.707073085937502Q31.22321796875,31.6374230859375,31.16849796875,31.5555330859375Q31.11377796875,31.4736430859375,31.07608796875,31.3826430859375Q31.03839796875,31.2916530859375,31.01917796875,31.195053085937502Q30.99996796875,31.0984530859375,30.99996796875,30.9999630859375L30.99996796875,30.3999630859375Q30.99996796875,28.4805730859375,30.94879796875,27.8542130859375Q30.88312796875,27.0503930859375,30.67301196875,26.6380030859375Q30.23046296875,25.7694630859375,29.36192196875,25.3269170859375Q29.27416596875,25.2822020859375,29.19681896875,25.2212260859375Q29.11947296875,25.1602500859375,29.05550796875,25.0853560859375Q28.99154296875,25.0104620859375,28.94341896875,24.9245290859375Q28.89529496875,24.8385950859375,28.86485996875,24.7449240859375Q28.83442496875,24.6512530859375,28.82284896875,24.5534440859375Q28.81127796875,24.4556352859375,28.81900096875,24.3574475859375Q28.82672896875,24.2592600859375,28.85346496875,24.1644660859375Q28.88019996875,24.0696730859375,28.92491396875,23.9819170859375Q28.96962896875,23.8941610859375,29.03060496875,23.8168140859375Q29.09158096875,23.7394680859375,29.16647496875,23.6755030859375Q29.24136896875,23.6115380859375,29.32730196875,23.5634140859375Q29.41323596875,23.5152900859375,29.50690696875,23.4848550859375Q29.60057796875,23.4544200859375,29.69838696875,23.4428440859375Q29.79619576875,23.4312730859375,29.89438346875,23.4389960859375Q29.99257096875,23.4467240859375,30.08736496875,23.4734600859375Q30.18215796875,23.5001950859375,30.26991396875,23.5449090859375ZM30.81591796875,24.4359130859375Q30.81591796875,24.5344044859375,30.79670296875,24.6310030859375Q30.777487968750002,24.7276020859375,30.73979696875,24.8185960859375Q30.70210596875,24.9095910859375,30.64738796875,24.9914830859375Q30.59266896875,25.0733760859375,30.52302496875,25.1430200859375Q30.45338096875,25.2126640859375,30.37148796875,25.2673830859375Q30.28959596875,25.3221010859375,30.19860096875,25.3597920859375Q30.10760696875,25.397483085937502,30.01100796875,25.4166980859375Q29.91440936875,25.4359130859375,29.81591796875,25.4359130859375Q29.71742656875,25.4359130859375,29.62082796875,25.4166980859375Q29.52422896875,25.397483085937502,29.43323496875,25.3597920859375Q29.34223996875,25.3221010859375,29.26034796875,25.2673830859375Q29.17845496875,25.2126640859375,29.10881096875,25.1430200859375Q29.03916696875,25.0733760859375,28.98444796875,24.9914830859375Q28.92972996875,24.9095910859375,28.89203896875,24.8185960859375Q28.854347968749998,24.7276020859375,28.83513296875,24.6310030859375Q28.81591796875,24.5344044859375,28.81591796875,24.4359130859375Q28.81591796875,24.3374216859375,28.83513296875,24.2408230859375Q28.854347968749998,24.1442240859375,28.89203896875,24.0532300859375Q28.92972996875,23.9622350859375,28.98444796875,23.8803430859375Q29.03916696875,23.7984500859375,29.10881096875,23.7288060859375Q29.17845496875,23.6591620859375,29.26034796875,23.6044430859375Q29.34223996875,23.5497250859375,29.43323496875,23.5120340859375Q29.52422896875,23.474343085937498,29.62082796875,23.4551280859375Q29.71742656875,23.4359130859375,29.81591796875,23.4359130859375Q29.91440936875,23.4359130859375,30.01100796875,23.4551280859375Q30.10760696875,23.474343085937498,30.19860096875,23.5120340859375Q30.28959596875,23.5497250859375,30.37148796875,23.6044430859375Q30.45338096875,23.6591620859375,30.52302496875,23.7288060859375Q30.59266896875,23.7984500859375,30.64738796875,23.8803430859375Q30.70210596875,23.9622350859375,30.73979696875,24.0532300859375Q30.777487968750002,24.1442240859375,30.79670296875,24.2408230859375Q30.81591796875,24.3374216859375,30.81591796875,24.4359130859375ZM32.99996796875,30.9999630859375Q32.99996796875,31.0984530859375,32.98074796875,31.195053085937502Q32.96153796875,31.2916530859375,32.92384796875,31.3826430859375Q32.88615796875,31.4736430859375,32.83143796875,31.5555330859375Q32.77671796875,31.6374230859375,32.70707796875,31.707073085937502Q32.63742796875,31.7767130859375,32.55553796875,31.8314330859375Q32.47364796875,31.8861530859375,32.38264796875,31.9238430859375Q32.29165796875,31.9615330859375,32.19505796875,31.9807430859375Q32.09845796875,31.9999630859375,31.99996796875,31.9999630859375Q31.90147796875,31.9999630859375,31.80487796875,31.9807430859375Q31.70827796875,31.9615330859375,31.61728796875,31.9238430859375Q31.52628796875,31.8861530859375,31.44439796875,31.8314330859375Q31.36250796875,31.7767130859375,31.29285796875,31.707073085937502Q31.22321796875,31.6374230859375,31.16849796875,31.5555330859375Q31.11377796875,31.4736430859375,31.07608796875,31.3826430859375Q31.03839796875,31.2916530859375,31.01917796875,31.195053085937502Q30.99996796875,31.0984530859375,30.99996796875,30.9999630859375Q30.99996796875,30.9014730859375,31.01917796875,30.8048730859375Q31.03839796875,30.7082730859375,31.07608796875,30.6172830859375Q31.11377796875,30.5262830859375,31.16849796875,30.4443930859375Q31.22321796875,30.3625030859375,31.29285796875,30.2928530859375Q31.36250796875,30.223213085937502,31.44439796875,30.1684930859375Q31.52628796875,30.1137730859375,31.61728796875,30.0760830859375Q31.70827796875,30.0383930859375,31.80487796875,30.0191730859375Q31.90147796875,29.9999630859375,31.99996796875,29.9999630859375Q32.09845796875,29.9999630859375,32.19505796875,30.0191730859375Q32.29165796875,30.0383930859375,32.38264796875,30.0760830859375Q32.47364796875,30.1137730859375,32.55553796875,30.1684930859375Q32.63742796875,30.223213085937502,32.70707796875,30.2928530859375Q32.77671796875,30.3625030859375,32.83143796875,30.4443930859375Q32.88615796875,30.5262830859375,32.92384796875,30.6172830859375Q32.96153796875,30.7082730859375,32.98074796875,30.8048730859375Q32.99996796875,30.9014730859375,32.99996796875,30.9999630859375Z" fill="#FF4A9B" fill-opacity="1"/></g><g><path d="M14.63803,25.3269160859375Q13.76953,25.7694530859375,13.32698,26.6380030859375Q13.11685,27.0504130859375,13.05118,27.8542130859375Q13,28.4805730859375,13,30.3999630859375L13,30.9999630859375Q13,31.0984530859375,12.980785000000001,31.195053085937502Q12.96157,31.2916530859375,12.923879,31.3826430859375Q12.886188,31.4736430859375,12.83147,31.5555330859375Q12.776751,31.6374230859375,12.707107,31.707073085937502Q12.637463,31.7767130859375,12.55557,31.8314330859375Q12.473678,31.8861530859375,12.382683,31.9238430859375Q12.291689,31.9615330859375,12.19509,31.9807430859375Q12.0984914,31.9999630859375,12,31.9999630859375Q11.9015086,31.9999630859375,11.80491,31.9807430859375Q11.708311,31.9615330859375,11.617317,31.9238430859375Q11.526322,31.8861530859375,11.44443,31.8314330859375Q11.362537,31.7767130859375,11.292893,31.707073085937502Q11.223249,31.6374230859375,11.16853,31.5555330859375Q11.113812,31.4736430859375,11.076121,31.3826430859375Q11.03843,31.2916530859375,11.019214999999999,31.195053085937502Q11,31.0984530859375,11,30.9999630859375L11,30.3999630859375Q11,28.3990030859375,11.057818,27.6913530859375Q11.155635,26.4941330859375,11.544966,25.7300230859375Q12.282525,24.2824700859375,13.73004,23.5449100859375Q13.81779,23.5001960859375,13.91259,23.4734600859375Q14.00738,23.4467250859375,14.10557,23.4389970859375Q14.20375,23.4312730859375,14.30156,23.4428440859375Q14.39937,23.4544190859375,14.49304,23.4848540859375Q14.58671,23.5152890859375,14.67265,23.5634130859375Q14.75858,23.6115370859375,14.83348,23.6755010859375Q14.90837,23.7394660859375,14.96935,23.8168120859375Q15.03032,23.8941590859375,15.07504,23.9819150859375Q15.11975,24.0696710859375,15.14649,24.1644640859375Q15.17322,24.2592570859375,15.18095,24.3574452859375Q15.18868,24.4556329859375,15.1771,24.5534420859375Q15.16553,24.6512500859375,15.13509,24.7449220859375Q15.104659999999999,24.8385930859375,15.05653,24.9245270859375Q15.00841,25.0104600859375,14.94445,25.0853540859375Q14.88048,25.1602480859375,14.803139999999999,25.2212240859375Q14.72579,25.2822000859375,14.63803,25.3269160859375ZM15.18404,24.4359130859375Q15.18403,24.5344044859375,15.16482,24.6310030859375Q15.14561,24.7276020859375,15.10791,24.8185960859375Q15.070219999999999,24.9095910859375,15.0155,24.9914830859375Q14.96079,25.0733760859375,14.89114,25.1430200859375Q14.8215,25.2126640859375,14.7396,25.2673830859375Q14.65771,25.3221010859375,14.56672,25.3597920859375Q14.475719999999999,25.397483085937502,14.37913,25.4166980859375Q14.28253,25.4359130859375,14.18404,25.4359130859375Q14.08554,25.4359130859375,13.98894,25.4166980859375Q13.89235,25.397483085937502,13.80135,25.3597920859375Q13.71036,25.3221010859375,13.62846,25.2673830859375Q13.54657,25.2126640859375,13.47693,25.1430200859375Q13.40728,25.0733760859375,13.35257,24.9914830859375Q13.29785,24.9095910859375,13.260159999999999,24.8185960859375Q13.22246,24.7276020859375,13.20325,24.6310030859375Q13.18404,24.5344044859375,13.18404,24.4359130859375Q13.18404,24.3374216859375,13.20325,24.2408230859375Q13.22246,24.1442240859375,13.260159999999999,24.0532300859375Q13.29785,23.9622350859375,13.35257,23.8803430859375Q13.40728,23.7984500859375,13.47693,23.7288060859375Q13.54657,23.6591620859375,13.62846,23.6044430859375Q13.71036,23.5497250859375,13.80135,23.5120340859375Q13.89235,23.474343085937498,13.98894,23.4551280859375Q14.08554,23.4359130859375,14.18404,23.4359130859375Q14.28253,23.4359130859375,14.37913,23.4551280859375Q14.475719999999999,23.474343085937498,14.56672,23.5120340859375Q14.65771,23.5497250859375,14.7396,23.6044430859375Q14.8215,23.6591620859375,14.89114,23.7288060859375Q14.96079,23.7984500859375,15.0155,23.8803430859375Q15.070219999999999,23.9622350859375,15.10791,24.0532300859375Q15.14561,24.1442240859375,15.16482,24.2408230859375Q15.18403,24.3374216859375,15.18404,24.4359130859375ZM13,30.9999630859375Q13,31.0984530859375,12.980785000000001,31.195053085937502Q12.96157,31.2916530859375,12.923879,31.3826430859375Q12.886188,31.4736430859375,12.83147,31.5555330859375Q12.776751,31.6374230859375,12.707107,31.707073085937502Q12.637463,31.7767130859375,12.55557,31.8314330859375Q12.473678,31.8861530859375,12.382683,31.9238430859375Q12.291689,31.9615330859375,12.19509,31.9807430859375Q12.0984914,31.9999630859375,12,31.9999630859375Q11.9015086,31.9999630859375,11.80491,31.9807430859375Q11.708311,31.9615330859375,11.617317,31.9238430859375Q11.526322,31.8861530859375,11.44443,31.8314330859375Q11.362537,31.7767130859375,11.292893,31.707073085937502Q11.223249,31.6374230859375,11.16853,31.5555330859375Q11.113812,31.4736430859375,11.076121,31.3826430859375Q11.03843,31.2916530859375,11.019214999999999,31.195053085937502Q11,31.0984530859375,11,30.9999630859375Q11,30.9014730859375,11.019214999999999,30.8048730859375Q11.03843,30.7082730859375,11.076121,30.6172830859375Q11.113812,30.5262830859375,11.16853,30.4443930859375Q11.223249,30.3625030859375,11.292893,30.2928530859375Q11.362537,30.223213085937502,11.44443,30.1684930859375Q11.526322,30.1137730859375,11.617317,30.0760830859375Q11.708311,30.0383930859375,11.80491,30.0191730859375Q11.9015086,29.9999630859375,12,29.9999630859375Q12.0984914,29.9999630859375,12.19509,30.0191730859375Q12.291689,30.0383930859375,12.382683,30.0760830859375Q12.473678,30.1137730859375,12.55557,30.1684930859375Q12.637463,30.223213085937502,12.707107,30.2928530859375Q12.776751,30.3625030859375,12.83147,30.4443930859375Q12.886188,30.5262830859375,12.923879,30.6172830859375Q12.96157,30.7082730859375,12.980785000000001,30.8048730859375Q13,30.9014730859375,13,30.9999630859375Z" fill="#FF4A9B" fill-opacity="1"/></g></g></g></svg>