<svg xmlns="http://www.w3.org/2000/svg" xmlns:xlink="http://www.w3.org/1999/xlink" fill="none" version="1.1" width="44" height="44" viewBox="0 0 44 44"><defs><linearGradient x1="0.5" y1="1" x2="0.5" y2="0" id="master_svg0_15_02250"><stop offset="0%" stop-color="#FF4A9B" stop-opacity="0.019999999552965164"/><stop offset="100%" stop-color="#FF4A9B" stop-opacity="0.20000000298023224"/></linearGradient><clipPath id="master_svg1_15_903"><rect x="11" y="9.9954833984375" width="24" height="24" rx="0"/></clipPath></defs><g style="mix-blend-mode:passthrough"><g style="mix-blend-mode:passthrough"><ellipse cx="22" cy="22" rx="22" ry="22" fill="url(#master_svg0_15_02250)" fill-opacity="1"/></g><g clip-path="url(#master_svg1_15_903)"><g><path d="M15,14.3L15,29.7C15,31.5225,16.54978,33,18.46154,33L26.5385,33C28.450200000000002,33,30,31.5225,30,29.7L30,14.3C30,12.47746,28.450200000000002,11,26.5385,11L18.46154,11C16.54978,11,15,12.47746,15,14.3ZM22,15.99548C21.44772,15.99548,21,15.54777,21,14.99548C21,14.443200000000001,21.44772,13.99548,22,13.99548L24,13.99548C24.55228,13.99548,25,14.443200000000001,25,14.99548C25,15.54777,24.55228,15.99548,24,15.99548L22,15.99548ZM25,29.9955L21,29.9955C20.44772,29.9955,20,29.5478,20,28.9955C20,28.4432,20.44772,27.9955,21,27.9955L25,27.9955C25.552300000000002,27.9955,26,28.4432,26,28.9955C26,29.5478,25.552300000000002,29.9955,25,29.9955Z" fill-rule="evenodd" fill="#FF4A9B" fill-opacity="1"/></g></g></g></svg>